<svg id="Layer_1" data-name="Layer 1" xmlns="http://www.w3.org/2000/svg" viewBox="0 0 246.23 54.41"><defs><style>.cls-1{fill:#e32726;}</style></defs><path class="cls-1" d="M79.92,40.08c-6.88,0-11.25-5.66-11.25-13.72S73,12.65,79.92,12.65c4.33,0,7.22,1.75,9,5l-3.53,2.2c-1.37-2.17-2.78-3.19-5.51-3.19-4.64,0-7.15,3.76-7.15,9.72s2.51,9.73,7.15,9.73a6.33,6.33,0,0,0,5.85-3.3l3.3,2.2A10.12,10.12,0,0,1,79.92,40.08Z"/><path class="cls-1" d="M107.31,28.8l5.44,10.86h-4.6l-5.28-10.52h-6V39.66H93V13.07h11.67c4.63,0,8.55,2.47,8.55,7.94C113.17,25.26,110.92,27.88,107.31,28.8Zm-2.69-12H96.87v8.55h7.75c2.66,0,4.52-1.37,4.52-4.26S107.31,16.83,104.62,16.83Z"/><path class="cls-1" d="M127.73,40.08c-6.88,0-11.24-5.66-11.24-13.72s4.36-13.71,11.24-13.71c4.33,0,7.22,1.75,9,5l-3.53,2.2c-1.37-2.17-2.77-3.19-5.51-3.19-4.63,0-7.14,3.76-7.14,9.72s2.51,9.73,7.14,9.73a6.31,6.31,0,0,0,5.85-3.3l3.31,2.2A10.13,10.13,0,0,1,127.73,40.08Z"/><path class="cls-1" d="M160.21,40.08c-6.88,0-11.24-5.66-11.24-13.72s4.36-13.71,11.24-13.71c4.33,0,7.22,1.75,9,5l-3.49,2.16a5.79,5.79,0,0,0-5.55-3.15c-4.63,0-7.18,3.76-7.18,9.72s2.55,9.73,7.18,9.73c4.33,0,6-2.85,6-6V30h-4.33V26.17h8.4v3.08C170.32,36.09,166.14,40.08,160.21,40.08Z"/><path class="cls-1" d="M185.2,23.86a5.82,5.82,0,0,0-3-.73c-2.46,0-3.91,1.75-3.91,5.13v11.4h-3.91V19.71h3.91v1.9a5.54,5.54,0,0,1,4.56-2.31,5.75,5.75,0,0,1,3.38.83Z"/><path class="cls-1" d="M196.32,40.08c-5,0-8.77-4.14-8.77-10.37,0-6.54,3.87-10.41,8.89-10.41s8.89,4.06,8.89,10.29C205.33,36.2,201.45,40.08,196.32,40.08Zm0-17.06c-3,0-4.78,2.62-4.78,6.57,0,4.37,2,6.77,5,6.77s4.91-3,4.91-6.65C201.38,25.64,199.44,23,196.28,23Z"/><path class="cls-1" d="M220.92,39.66v-1.9a6.11,6.11,0,0,1-5,2.32c-4.63,0-7.1-3-7.1-8.93V19.71h3.91V31c0,4,1.52,5.47,4.1,5.47s4.11-1.86,4.11-5.09V19.71h3.91V39.66Z"/><path class="cls-1" d="M238.36,40.08a7.06,7.06,0,0,1-5-2.28V45l-3.88,2V19.71h3.88v1.9a7.62,7.62,0,0,1,5.2-2.31c4.29,0,7.68,3.11,7.68,10.71C246.23,36.85,242.5,40.08,238.36,40.08Zm-.53-17.17a6.12,6.12,0,0,0-4.52,2.54v8.4A6.38,6.38,0,0,0,238,36.47c2.81,0,4.33-2.13,4.33-6.34C242.31,25.11,240.72,22.91,237.83,22.91Z"/><polygon class="cls-1" points="27.16 0 10.05 17.14 19.1 26.2 36.21 9.07 27.16 0"/><polygon class="cls-1" points="28.16 19.14 45.26 36.28 54.31 27.2 37.21 10.07 28.16 19.14"/><polygon class="cls-1" points="18.11 45.34 27.16 54.41 44.26 37.28 35.21 28.21 18.11 45.34"/><polygon class="cls-1" points="0 27.21 17.1 44.34 26.16 35.27 9.05 18.14 0 27.21"/></svg>