<?xml version="1.0" encoding="utf-8"?>
<!DOCTYPE svg PUBLIC "-//W3C//DTD SVG 1.1//EN" "http://www.w3.org/Graphics/SVG/1.1/DTD/svg11.dtd">
<!-- exported from Silhouette Studio® Business Edition V4.4.554ssbe -->
<svg version="1.1" xmlns="http://www.w3.org/2000/svg" xmlns:xlink="http://www.w3.org/1999/xlink" width="176.3889mm" height="176.3889mm" viewBox="0 0 176.3889 176.3889">
<defs>
<path id="path_c30a5cd5ca36b0e19d28c0f3fbf0e8ac" d="M 83.8221 47.74957 L 11.5431 47.74957 L 11.5431 56.40549 L 74.12072 56.40549 L 74.12072 75.99567 C 74.12072 93.21012 66.98801 96.25467 46.54159 96.25467 C 27.04511 96.25467 19.91055 93.87709 19.91055 82.17847 L 19.91055 78.94467 L 10.211 78.94467 L 10.211 82.17847 C 10.211 97.39568 18.58028 105.765 46.54159 105.765 C 75.26175 105.765 83.8221 95.11182 83.8221 75.61533 L 83.8221 47.74957 Z" fill-rule="evenodd" fill="#F50000" fill-opacity="1" stroke="none" stroke-opacity="1" stroke-width="0.4703704" stroke-linecap="butt" stroke-linejoin="miter"/>
<path id="path_4e8d30cea4422c44f5d8763afd88b096" d="M 155.0507 104.8132 L 166.1779 104.8132 L 134.9828 48.03622 L 135.0783 47.74958 L 123.6663 47.74958 L 123.8556 48.03622 L 92.5668 104.8132 L 103.694 104.8132 L 109.3054 94.63779 L 149.4393 94.63779 L 155.0507 104.8132 Z M 114.5364 85.12749 L 129.3714 58.11611 L 144.2083 85.12749 L 114.5364 85.12749 Z" fill-rule="evenodd" fill="#F50000" fill-opacity="1" stroke="none" stroke-opacity="1" stroke-width="0.4703704" stroke-linecap="butt" stroke-linejoin="miter"/>
<path id="path_ced270b13a7430cd7b818dc0e11c1a64" d="M 10.11483 128.3628 L 11.64361 128.3628 L 12.92689 121.421 L 17.53065 121.421 C 20.54121 121.421 22.86572 120.0422 23.50649 116.5363 C 24.149 113.0323 22.33466 111.6535 19.3241 111.6535 L 13.17065 111.6535 L 10.11483 128.3628 Z M 13.17066 120.09 L 14.47656 113.0084 L 19.01416 113.0084 C 21.22725 113.0084 22.44435 114.0599 21.97945 116.5363 C 21.53718 119.0384 19.92134 120.09 17.70826 120.09 L 13.17066 120.09 Z" fill-rule="evenodd" fill="#000000" fill-opacity="1" stroke="none" stroke-opacity="1" stroke-width="0.4703704" stroke-linecap="butt" stroke-linejoin="miter"/>
<path id="path_c361abb090c946908f743760bd472b18" d="M 23.0816 128.3628 L 34.08432 128.3628 L 34.32635 127.0079 L 24.85241 127.0079 L 26.11479 120.2297 L 34.52659 120.2297 L 34.77036 118.8747 L 26.35856 118.8747 L 27.44333 113.0084 L 36.71703 113.0084 L 36.93817 111.6534 L 26.13742 111.6534 L 23.0816 128.3628 Z" fill-rule="evenodd" fill="#000000" fill-opacity="1" stroke="none" stroke-opacity="1" stroke-width="0.4703704" stroke-linecap="butt" stroke-linejoin="miter"/>
<path id="path_ef5989cb4c7395460d845e19e801910a" d="M 36.15953 128.3629 L 37.68657 128.3629 L 38.97158 121.375 L 43.79648 121.375 C 48.04678 121.375 45.61083 127.6624 46.3195 128.3629 L 47.93534 128.3629 L 47.95798 128.1992 C 47.11697 127.918 49.52856 121.2353 45.63346 120.6746 L 45.6561 120.6268 C 47.82565 120.2058 49.44149 118.7332 49.88376 116.3727 C 50.45837 113.172 48.75546 111.6535 45.72226 111.6535 L 39.21361 111.6535 L 36.15953 128.3629 Z M 39.21361 120.0422 L 40.49863 113.0084 L 44.99096 113.0084 C 47.58187 113.0084 48.77636 114.036 48.31145 116.5142 C 47.86918 118.8748 46.0322 120.0422 43.68505 120.0422 L 39.21361 120.0422 Z" fill-rule="evenodd" fill="#000000" fill-opacity="1" stroke="none" stroke-opacity="1" stroke-width="0.4703704" stroke-linecap="butt" stroke-linejoin="miter"/>
<path id="path_6d151e9dab33d366c8bb48eec7eae13e" d="M 49.45771 128.3629 L 50.9865 128.3629 L 52.42474 120.533 L 60.12786 120.533 L 60.37164 119.1781 L 52.66851 119.1781 L 53.81945 113.0084 L 62.87202 113.0084 L 63.09316 111.6535 L 52.51354 111.6535 L 49.45771 128.3629 Z" fill-rule="evenodd" fill="#000000" fill-opacity="1" stroke="none" stroke-opacity="1" stroke-width="0.4703704" stroke-linecap="butt" stroke-linejoin="miter"/>
<path id="path_91be029320a0a9a25dc0c7bdd5a03e6a" d="M 68.53441 128.6441 C 73.05111 128.6441 76.61361 125.0206 77.54343 119.9962 C 78.47323 114.9718 76.23752 111.3722 71.72256 111.3722 C 67.20586 111.3722 63.64334 114.9718 62.71354 119.9962 C 61.78373 125.0206 63.99681 128.6441 68.53441 128.6441 Z M 68.77816 127.2874 C 65.25917 127.2874 63.4431 124.2963 64.24058 119.9962 C 65.03805 115.6961 67.93716 112.705 71.45615 112.705 C 74.99777 112.705 76.81386 115.6961 76.01638 119.9962 C 75.21891 124.2963 72.31979 127.2874 68.77816 127.2874 Z" fill-rule="evenodd" fill="#000000" fill-opacity="1" stroke="none" stroke-opacity="1" stroke-width="0.4703704" stroke-linecap="butt" stroke-linejoin="miter"/>
<path id="path_d512ad7899448508e94ee795d50c425c" d="M 77.89219 128.3629 L 79.41924 128.3629 L 80.70425 121.375 L 85.52915 121.375 C 89.77945 121.375 87.3435 127.6624 88.05217 128.3629 L 89.66801 128.3629 L 89.69065 128.1992 C 88.84965 127.918 91.26122 121.2353 87.36613 120.6746 L 87.38876 120.6268 C 89.5583 120.2058 91.17416 118.7332 91.61644 116.3727 C 92.19104 113.172 90.48813 111.6535 87.45494 111.6535 L 80.94628 111.6535 L 77.89219 128.3629 Z M 80.94628 120.0422 L 82.2313 113.0084 L 86.72363 113.0084 C 89.31455 113.0084 90.50902 114.036 90.04411 116.5142 C 89.60184 118.8748 87.76488 120.0422 85.41772 120.0422 L 80.94628 120.0422 Z" fill-rule="evenodd" fill="#000000" fill-opacity="1" stroke="none" stroke-opacity="1" stroke-width="0.4703704" stroke-linecap="butt" stroke-linejoin="miter"/>
<path id="path_834a394363dc657c15dea6672e420bbb" d="M 91.21304 128.3629 L 92.69656 128.3629 L 95.30838 114.06 L 95.35191 114.06 L 98.11869 128.3629 L 99.38107 128.3629 L 107.3941 114.06 L 107.4377 114.06 L 104.8258 128.3629 L 106.2867 128.3629 L 109.3425 111.6535 L 107.3506 111.6535 L 99.18258 126.0961 L 99.1373 126.0961 L 96.26083 111.6535 L 94.26713 111.6535 L 91.21304 128.3629 Z" fill-rule="evenodd" fill="#000000" fill-opacity="1" stroke="none" stroke-opacity="1" stroke-width="0.4703704" stroke-linecap="butt" stroke-linejoin="miter"/>
<path id="path_3cb181c5c189bb52d410b6522734df4f" d="M 107.7644 128.3629 L 109.2914 128.3629 L 112.0582 123.2208 L 118.9865 123.2208 L 119.8728 128.3629 L 121.3998 128.3629 L 118.4328 111.6535 L 116.817 111.6535 L 107.7644 128.3629 Z M 112.6781 121.9357 L 117.3045 113.2658 L 117.348 113.2658 L 118.8089 121.9357 L 112.6781 121.9357 Z" fill-rule="evenodd" fill="#000000" fill-opacity="1" stroke="none" stroke-opacity="1" stroke-width="0.4703704" stroke-linecap="butt" stroke-linejoin="miter"/>
<path id="path_5147c7823f67eceab1f1b25578f21cde" d="M 122.8555 128.3628 L 124.3826 128.3628 L 126.9735 114.1776 L 127.017 114.1776 L 133.3916 128.3628 L 135.0527 128.3628 L 138.1068 111.6534 L 136.5797 111.6534 L 133.9679 125.8847 L 133.9226 125.8847 L 127.5707 111.6534 L 125.9096 111.6534 L 122.8555 128.3628 Z" fill-rule="evenodd" fill="#000000" fill-opacity="1" stroke="none" stroke-opacity="1" stroke-width="0.4703704" stroke-linecap="butt" stroke-linejoin="miter"/>
<path id="path_7c2b8e7ec62e8120bbd936b84538294a" d="M 144.2118 128.6441 C 147.7969 128.6441 150.7187 126.12 151.8035 122.4726 L 150.2764 122.4726 C 149.479 125.0445 147.3547 127.2874 144.4329 127.2874 C 140.7363 127.2874 139.2528 124.2724 140.0276 120.0201 C 140.8025 115.8359 143.3708 112.705 147.1544 112.705 C 149.8115 112.705 151.2062 114.5269 151.1174 116.9113 L 152.6445 116.9113 C 152.7768 113.6629 150.9172 111.3722 147.4644 111.3722 C 142.8832 111.3722 139.4304 114.9718 138.5006 120.0201 C 137.5708 125.1383 139.6951 128.6441 144.2118 128.6441 Z" fill-rule="evenodd" fill="#000000" fill-opacity="1" stroke="none" stroke-opacity="1" stroke-width="0.4703704" stroke-linecap="butt" stroke-linejoin="miter"/>
<path id="path_d3f984080bd0568e84f0fe237e6e26e1" d="M 152.4175 128.3628 L 163.4202 128.3628 L 163.6622 127.0079 L 154.1883 127.0079 L 155.4507 120.2297 L 163.8625 120.2297 L 164.1062 118.8748 L 155.6945 118.8748 L 156.7792 113.0084 L 166.0529 113.0084 L 166.2741 111.6535 L 155.4733 111.6535 L 152.4175 128.3628 Z" fill-rule="evenodd" fill="#000000" fill-opacity="1" stroke="none" stroke-opacity="1" stroke-width="0.4703704" stroke-linecap="butt" stroke-linejoin="miter"/>
</defs>
<g>
<g>
<g>
<g>
<g>
<use xlink:href="#path_c30a5cd5ca36b0e19d28c0f3fbf0e8ac"/>
</g>
</g>
</g>
</g>
<g>
<g>
<g>
<g>
<use xlink:href="#path_4e8d30cea4422c44f5d8763afd88b096"/>
</g>
</g>
</g>
</g>
</g>
<g>
<g>
<g>
<g>
<g>
<use xlink:href="#path_ced270b13a7430cd7b818dc0e11c1a64"/>
</g>
</g>
</g>
</g>
<g>
<g>
<g>
<g>
<use xlink:href="#path_c361abb090c946908f743760bd472b18"/>
</g>
</g>
</g>
</g>
<g>
<g>
<g>
<g>
<use xlink:href="#path_ef5989cb4c7395460d845e19e801910a"/>
</g>
</g>
</g>
</g>
<g>
<g>
<g>
<g>
<use xlink:href="#path_6d151e9dab33d366c8bb48eec7eae13e"/>
</g>
</g>
</g>
</g>
<g>
<g>
<g>
<g>
<use xlink:href="#path_91be029320a0a9a25dc0c7bdd5a03e6a"/>
</g>
</g>
</g>
</g>
<g>
<g>
<g>
<g>
<use xlink:href="#path_d512ad7899448508e94ee795d50c425c"/>
</g>
</g>
</g>
</g>
<g>
<g>
<g>
<g>
<use xlink:href="#path_834a394363dc657c15dea6672e420bbb"/>
</g>
</g>
</g>
</g>
<g>
<g>
<g>
<g>
<use xlink:href="#path_3cb181c5c189bb52d410b6522734df4f"/>
</g>
</g>
</g>
</g>
<g>
<g>
<g>
<g>
<use xlink:href="#path_5147c7823f67eceab1f1b25578f21cde"/>
</g>
</g>
</g>
</g>
<g>
<g>
<g>
<g>
<use xlink:href="#path_7c2b8e7ec62e8120bbd936b84538294a"/>
</g>
</g>
</g>
</g>
<g>
<g>
<g>
<g>
<use xlink:href="#path_d3f984080bd0568e84f0fe237e6e26e1"/>
</g>
</g>
</g>
</g>
</g>
</svg>